<?xml version="1.0" encoding="utf-8"?>
<!-- Generator: Adobe Illustrator 27.9.1, SVG Export Plug-In . SVG Version: 6.00 Build 0)  -->
<svg version="1.1" id="Layer_1" xmlns="http://www.w3.org/2000/svg" xmlns:xlink="http://www.w3.org/1999/xlink" x="0px" y="0px"
	 viewBox="0 0 24 24" style="enable-background:new 0 0 24 24;" xml:space="preserve">
<style type="text/css">
	.st0{fill:#FFFFFF;}
</style>
<path class="st0" d="M19.1,21.6l-2.9-2.9l-2.2,2.2l-0.7-0.7c-0.4-0.4-0.6-0.9-0.6-1.4c0-0.6,0.2-1,0.6-1.4l4.2-4.2
	c0.4-0.4,0.9-0.6,1.4-0.6s1,0.2,1.4,0.6l0.7,0.7L18.8,16l2.9,2.9c0.2,0.2,0.3,0.4,0.3,0.7s-0.1,0.5-0.3,0.7l-1.2,1.2
	c-0.2,0.2-0.4,0.3-0.7,0.3C19.5,21.9,19.2,21.8,19.1,21.6z M22,5.9L10.7,17.2l0.1,0.1c0.4,0.4,0.6,0.9,0.6,1.4c0,0.6-0.2,1-0.6,1.4
	l-0.7,0.7l-2.2-2.2L5,21.6c-0.2,0.2-0.4,0.3-0.7,0.3s-0.5-0.1-0.7-0.3l-1.2-1.2C2.1,20.1,2,19.9,2,19.6s0.1-0.5,0.3-0.7L5.2,16
	L3,13.8l0.7-0.7c0.4-0.4,0.9-0.6,1.4-0.6s1,0.2,1.4,0.6l0.1,0.1L18,1.9h4V5.9z M8.4,9.4l0.6-0.6l0.6-0.6L8.9,8.8L8.4,9.4z M7,10.8
	L2,5.9v-4h4l4.9,5L9.5,8.2L5.2,3.9H4v1.2l4.4,4.4L7,10.8z M9.2,15.8L20,5.1V3.9h-1.2L8.1,14.6L9.2,15.8z M9.2,15.8l-0.6-0.6
	l-0.6-0.6l0.6,0.6L9.2,15.8z"/>
</svg>
