<?xml version="1.0" encoding="utf-8"?>
<!-- Generator: Adobe Illustrator 27.9.1, SVG Export Plug-In . SVG Version: 6.00 Build 0)  -->
<svg version="1.1" id="Layer_1" xmlns="http://www.w3.org/2000/svg" xmlns:xlink="http://www.w3.org/1999/xlink" x="0px" y="0px"
	 viewBox="0 0 24 24" style="enable-background:new 0 0 24 24;" xml:space="preserve">
<style type="text/css">
	.st0{fill:#FFFFFF;}
</style>
<path class="st0" d="M6,22v-4.2c-0.7-0.3-1.2-0.7-1.7-1.1c-0.5-0.5-0.9-1-1.2-1.6c-0.3-0.6-0.6-1.2-0.8-1.9S2,11.7,2,11
	c0-2.6,0.9-4.8,2.8-6.5S9.1,2,12,2s5.3,0.8,7.2,2.5S22,8.4,22,11c0,0.7-0.1,1.4-0.3,2.1c-0.2,0.7-0.4,1.3-0.8,1.9
	c-0.3,0.6-0.8,1.1-1.2,1.6c-0.5,0.5-1.1,0.9-1.7,1.1V22H6z M8,20h1v-2h2v2h2v-2h2v2h1v-3.5c0.6-0.2,1.2-0.4,1.7-0.8
	c0.5-0.4,0.9-0.8,1.2-1.2s0.6-1,0.8-1.6c0.2-0.6,0.3-1.2,0.3-1.8c0-2.1-0.7-3.8-2.2-5.1S14.4,4,12,4S7.7,4.6,6.2,5.9S4,8.9,4,11
	c0,0.6,0.1,1.3,0.3,1.8c0.2,0.6,0.4,1.1,0.8,1.6s0.8,0.9,1.3,1.2C6.8,16,7.4,16.3,8,16.5V20z M10.5,15h3L12,12L10.5,15z M8.5,13
	c0.6,0,1-0.2,1.4-0.6s0.6-0.9,0.6-1.4s-0.2-1-0.6-1.4S9.1,9,8.5,9s-1,0.2-1.4,0.6S6.5,10.4,6.5,11s0.2,1,0.6,1.4S8,13,8.5,13z
	 M15.5,13c0.6,0,1-0.2,1.4-0.6s0.6-0.9,0.6-1.4s-0.2-1-0.6-1.4S16.1,9,15.5,9c-0.6,0-1,0.2-1.4,0.6c-0.4,0.4-0.6,0.9-0.6,1.4
	s0.2,1,0.6,1.4C14.5,12.8,14.9,13,15.5,13z"/>
</svg>
