<?xml version="1.0" encoding="utf-8"?>
<!-- Generator: Adobe Illustrator 27.9.1, SVG Export Plug-In . SVG Version: 6.00 Build 0)  -->
<svg version="1.1" id="Layer_1" xmlns="http://www.w3.org/2000/svg" xmlns:xlink="http://www.w3.org/1999/xlink" x="0px" y="0px"
	 viewBox="0 0 24 24" style="enable-background:new 0 0 24 24;" xml:space="preserve">
<style type="text/css">
	.st0{fill:#FFFFFF;}
</style>
<path class="st0" d="M12,22c-1.4,0-2.7-0.3-3.9-0.8S5.8,20,4.9,19.1c-0.9-0.9-1.6-2-2.1-3.2S2,13.4,2,12s0.3-2.7,0.8-3.9
	S4,5.8,4.9,4.9s2-1.6,3.2-2.1S10.6,2,12,2s2.7,0.3,3.9,0.8s2.3,1.2,3.2,2.1s1.6,2,2.1,3.2C21.7,9.3,22,10.6,22,12s-0.3,2.7-0.8,3.9
	c-0.5,1.2-1.2,2.3-2.1,3.2c-0.9,0.9-2,1.6-3.2,2.1S13.4,22,12,22z M17,9.5l1.4-0.4l0.4-1.4c-0.5-0.8-1.2-1.5-1.9-2.1s-1.6-1-2.5-1.3
	L13,5.3v1.4L17,9.5z M7,9.5l4-2.8V5.3L9.7,4.3C8.8,4.6,7.9,5.1,7.2,5.6S5.8,6.9,5.2,7.7l0.4,1.4L7,9.5z M6,17.2l1.1-0.1l0.8-1.4
	l-1.4-4.4L5,10.9l-1,0.8c0,1.1,0.2,2.1,0.5,3C4.8,15.5,5.2,16.4,6,17.2z M12,20c0.4,0,0.9,0,1.3-0.1c0.4-0.1,0.8-0.2,1.2-0.3
	l0.7-1.5L14.6,17H9.4l-0.6,1.1l0.7,1.5c0.4,0.1,0.8,0.2,1.2,0.3C11.1,20,11.6,20,12,20z M9.8,15h4.5l1.4-4L12,8.4L8.4,11L9.8,15z
	 M18.1,17.2c0.7-0.8,1.2-1.7,1.5-2.6c0.3-0.9,0.4-1.9,0.4-3l-1-0.7l-1.4,0.4l-1.5,4.4l0.8,1.4L18.1,17.2z"/>
</svg>
